<?xml version="1.0" standalone="no"?>
 <!DOCTYPE svg PUBLIC "-//W3C//DTD SVG 1.1//EN" 
 "http://www.w3.org/Graphics/SVG/1.1/DTD/svg11.dtd"> 
<svg xmlns="http://www.w3.org/2000/svg" version="1.1" 
    width="1.65354cm" height="2.74828cm" viewBox="0 0 6510 10820 ">
<title>SVG Picture created as punchy--brd.svg date 2014/07/16 19:47:54 </title>
  <desc>Picture generated by PCBNEW </desc>
<g style="fill:#000000; fill-opacity:1;stroke:#000000; stroke-opacity:1;
stroke-linecap:round; stroke-linejoin:round; "
 transform="translate(0 0) scale(1 1)">
</g>
<g style="fill:#000000; fill-opacity:0.0; 
stroke:#000000; stroke-width:59.0551; stroke-opacity:1; 
stroke-linecap:round; stroke-linejoin:round;">
<path d="M2572 3162
L2572 2769
" />
<path d="M2572 2956
L2797 2956
" />
<path d="M2797 3162
L2797 2769
" />
<path d="M3209 3125
L3191 3144
L3134 3162
L3097 3162
L3041 3144
L3003 3106
L2984 3069
L2966 2994
L2966 2937
L2984 2862
L3003 2825
L3041 2787
L3097 2769
L3134 2769
L3191 2787
L3209 2806
" />
<path d="M3453 2769
L3491 2769
L3528 2787
L3547 2806
L3566 2844
L3584 2919
L3584 3012
L3566 3087
L3547 3125
L3528 3144
L3491 3162
L3453 3162
L3416 3144
L3397 3125
L3378 3087
L3359 3012
L3359 2919
L3378 2844
L3397 2806
L3416 2787
L3453 2769
" />
<path d="M3940 2769
L3753 2769
L3734 2956
L3753 2937
L3791 2919
L3884 2919
L3922 2937
L3940 2956
L3959 2994
L3959 3087
L3940 3125
L3922 3144
L3884 3162
L3791 3162
L3753 3144
L3734 3125
" />
<path d="M2497 7769
L2628 8162
L2759 7769
" />
<path d="M2872 8050
L3059 8050
" />
<path d="M2834 8162
L2966 7769
L3097 8162
" />
<path d="M3416 8162
L3228 8162
L3228 7769
" />
<path d="M3603 7769
L3603 7862
" />
<path d="M3509 7825
L3603 7862
L3697 7825
" />
<path d="M3547 7937
L3603 7862
L3659 7937
" />
<path d="M3903 7769
L3903 7862
" />
<path d="M3809 7825
L3903 7862
L3997 7825
" />
<path d="M3847 7937
L3903 7862
L3959 7937
" />
<path d="M737 5129
L737 129
" />
<path d="M737 129
L5776 129
" />
<path d="M5776 129
L5776 10129
" />
<path d="M5776 10129
L737 10129
" />
<path d="M737 10129
L737 5129
" />
</g>
<g style="fill:#000000; fill-opacity:0.0; 
stroke:#000000; stroke-width:39.3701; stroke-opacity:1; 
stroke-linecap:round; stroke-linejoin:round;">
</g>
<g style="fill:#000000; fill-opacity:1.0; 
stroke:#000000; stroke-width:39.3701; stroke-opacity:1; 
stroke-linecap:round; stroke-linejoin:round;">
<polyline style="fill-rule:evenodd;"
points="166,2629
166,2275
914,2275
914,2629
166,2629
" /> 
<polyline style="fill-rule:evenodd;"
points="166,3220
166,2865
914,2865
914,3220
166,3220
" /> 
<polyline style="fill-rule:evenodd;"
points="166,3810
166,3456
914,3456
914,3810
166,3810
" /> 
<polyline style="fill-rule:evenodd;"
points="166,4401
166,4046
914,4046
914,4401
166,4401
" /> 
<polyline style="fill-rule:evenodd;"
points="166,4991
166,4637
914,4637
914,4991
166,4991
" /> 
<polyline style="fill-rule:evenodd;"
points="166,5582
166,5227
914,5227
914,5582
166,5582
" /> 
<polyline style="fill-rule:evenodd;"
points="166,6172
166,5818
914,5818
914,6172
166,6172
" /> 
<polyline style="fill-rule:evenodd;"
points="166,6763
166,6409
914,6409
914,6763
166,6763
" /> 
<polyline style="fill-rule:evenodd;"
points="166,7353
166,6999
914,6999
914,7353
166,7353
" /> 
<polyline style="fill-rule:evenodd;"
points="166,7944
166,7590
914,7590
914,7944
166,7944
" /> 
<polyline style="fill-rule:evenodd;"
points="166,8535
166,8180
914,8180
914,8535
166,8535
" /> 
<polyline style="fill-rule:evenodd;"
points="166,9125
166,8771
914,8771
914,9125
166,9125
" /> 
<polyline style="fill-rule:evenodd;"
points="166,9716
166,9361
914,9361
914,9716
166,9716
" /> 
<polyline style="fill-rule:evenodd;"
points="1366,10661
1012,10661
1012,9912
1366,9912
1366,10661
" /> 
<polyline style="fill-rule:evenodd;"
points="1957,10661
1603,10661
1603,9912
1957,9912
1957,10661
" /> 
<polyline style="fill-rule:evenodd;"
points="2548,10661
2193,10661
2193,9912
2548,9912
2548,10661
" /> 
<polyline style="fill-rule:evenodd;"
points="3138,10661
2784,10661
2784,9912
3138,9912
3138,10661
" /> 
<polyline style="fill-rule:evenodd;"
points="3729,10661
3374,10661
3374,9912
3729,9912
3729,10661
" /> 
<polyline style="fill-rule:evenodd;"
points="4319,10661
3965,10661
3965,9912
4319,9912
4319,10661
" /> 
<polyline style="fill-rule:evenodd;"
points="4910,10661
4555,10661
4555,9912
4910,9912
4910,10661
" /> 
<polyline style="fill-rule:evenodd;"
points="5500,10661
5146,10661
5146,9912
5500,9912
5500,10661
" /> 
<polyline style="fill-rule:evenodd;"
points="5599,9716
5599,9361
6347,9361
6347,9716
5599,9716
" /> 
<polyline style="fill-rule:evenodd;"
points="5599,9125
5599,8771
6347,8771
6347,9125
5599,9125
" /> 
<polyline style="fill-rule:evenodd;"
points="5599,8535
5599,8180
6347,8180
6347,8535
5599,8535
" /> 
<polyline style="fill-rule:evenodd;"
points="5599,7944
5599,7590
6347,7590
6347,7944
5599,7944
" /> 
<polyline style="fill-rule:evenodd;"
points="5599,7353
5599,6999
6347,6999
6347,7353
5599,7353
" /> 
<polyline style="fill-rule:evenodd;"
points="5599,6763
5599,6409
6347,6409
6347,6763
5599,6763
" /> 
<polyline style="fill-rule:evenodd;"
points="5599,6172
5599,5818
6347,5818
6347,6172
5599,6172
" /> 
<polyline style="fill-rule:evenodd;"
points="5599,5582
5599,5227
6347,5227
6347,5582
5599,5582
" /> 
<polyline style="fill-rule:evenodd;"
points="5599,4991
5599,4637
6347,4637
6347,4991
5599,4991
" /> 
<polyline style="fill-rule:evenodd;"
points="5599,4401
5599,4046
6347,4046
6347,4401
5599,4401
" /> 
<polyline style="fill-rule:evenodd;"
points="5599,3810
5599,3456
6347,3456
6347,3810
5599,3810
" /> 
<polyline style="fill-rule:evenodd;"
points="5599,3220
5599,2865
6347,2865
6347,3220
5599,3220
" /> 
<polyline style="fill-rule:evenodd;"
points="5599,2629
5599,2275
6347,2275
6347,2629
5599,2629
" /> 
</g> 
</svg>
