M48
INCH,TZ
T1C0.013
T2C0.024
T3C0.035
T4C0.039
%
G90
G05
T1
X47800Y-29600
X48500Y-31900
X48762Y-31830
X49200Y-31700
X49213Y-32287
X49600Y-32200
X50775Y-29200
X51600Y-31300
X51800Y-32200
X52400Y-32000
X52500Y-29700
X52900Y-29600
X53000Y-31700
X53000Y-33600
X54300Y-30600
X54400Y-33300
X54500Y-33700
X54700Y-30600
X54900Y-32000
X55800Y-29700
X57000Y-32900
X57300Y-31400
X57300Y-31800
X57300Y-32100
X57400Y-29700
X57400Y-30800
X57700Y-30300
X58000Y-33800
X58700Y-29900
X58700Y-33800
T2
X59900Y-30450
X59900Y-30950
X59900Y-31450
X59900Y-31950
X59900Y-32450
X59900Y-32950
T3
X48100Y-32900
X48100Y-33900
T4
X48800Y-30300
T0
M30
