G04 (created by PCBNEW (2013-05-18 BZR 4017)-stable) date Thu 17 Jul 2014 20:47:08 CST*
%MOIN*%
G04 Gerber Fmt 3.4, Leading zero omitted, Abs format*
%FSLAX34Y34*%
G01*
G70*
G90*
G04 APERTURE LIST*
%ADD10C,0.00590551*%
%ADD11C,0.005*%
%ADD12C,0.00787402*%
%ADD13C,0.0031*%
%ADD14C,0.0039*%
%ADD15C,0.012*%
%ADD16C,0.0059*%
%ADD17C,0.0047*%
%ADD18C,0.0043*%
%ADD19C,0.0024*%
G04 APERTURE END LIST*
G54D10*
G54D11*
X47500Y-28921D02*
X47700Y-29221D01*
X47700Y-28921D02*
X47500Y-29221D01*
X46800Y-29078D02*
X46800Y-29221D01*
X46700Y-28921D02*
X46800Y-29078D01*
X46900Y-28921D01*
X47000Y-29821D02*
X47200Y-29821D01*
X47000Y-30121D01*
X47200Y-30121D01*
G54D12*
X47112Y-29512D02*
X47100Y-29500D01*
X47100Y-29500D02*
X47112Y-29512D01*
X47323Y-29500D02*
G75*
G03X47323Y-29500I-223J0D01*
G74*
G01*
X47800Y-28900D02*
X48000Y-29100D01*
X47800Y-29300D02*
X48000Y-29100D01*
X46800Y-28700D02*
X47000Y-28900D01*
X46600Y-28900D02*
X46800Y-28700D01*
G54D11*
X54950Y-33308D02*
X54950Y-33658D01*
X54950Y-33325D02*
X54983Y-33308D01*
X55050Y-33308D01*
X55083Y-33325D01*
X55100Y-33341D01*
X55116Y-33375D01*
X55116Y-33475D01*
X55100Y-33508D01*
X55083Y-33525D01*
X55050Y-33541D01*
X54983Y-33541D01*
X54950Y-33525D01*
X55416Y-33308D02*
X55416Y-33541D01*
X55266Y-33308D02*
X55266Y-33491D01*
X55283Y-33525D01*
X55316Y-33541D01*
X55366Y-33541D01*
X55400Y-33525D01*
X55416Y-33508D01*
X55583Y-33308D02*
X55583Y-33541D01*
X55583Y-33341D02*
X55600Y-33325D01*
X55633Y-33308D01*
X55683Y-33308D01*
X55716Y-33325D01*
X55733Y-33358D01*
X55733Y-33541D01*
X56050Y-33525D02*
X56016Y-33541D01*
X55950Y-33541D01*
X55916Y-33525D01*
X55900Y-33508D01*
X55883Y-33475D01*
X55883Y-33375D01*
X55900Y-33341D01*
X55916Y-33325D01*
X55950Y-33308D01*
X56016Y-33308D01*
X56050Y-33325D01*
X56200Y-33541D02*
X56200Y-33191D01*
X56350Y-33541D02*
X56350Y-33358D01*
X56333Y-33325D01*
X56300Y-33308D01*
X56250Y-33308D01*
X56216Y-33325D01*
X56200Y-33341D01*
X56483Y-33308D02*
X56566Y-33541D01*
X56649Y-33308D02*
X56566Y-33541D01*
X56533Y-33625D01*
X56516Y-33641D01*
X56483Y-33658D01*
X56783Y-33408D02*
X57049Y-33408D01*
X57183Y-33308D02*
X57266Y-33541D01*
X57349Y-33308D01*
X57666Y-33541D02*
X57466Y-33541D01*
X57566Y-33541D02*
X57566Y-33191D01*
X57533Y-33241D01*
X57499Y-33275D01*
X57466Y-33291D01*
X55058Y-34081D02*
X55058Y-33731D01*
X55258Y-34081D02*
X55108Y-33881D01*
X55258Y-33731D02*
X55058Y-33931D01*
X55408Y-34048D02*
X55425Y-34065D01*
X55408Y-34081D01*
X55391Y-34065D01*
X55408Y-34048D01*
X55408Y-34081D01*
X55841Y-34081D02*
X55841Y-33731D01*
X56041Y-34081D02*
X55891Y-33881D01*
X56041Y-33731D02*
X55841Y-33931D01*
X56191Y-34081D02*
X56191Y-33848D01*
X56191Y-33915D02*
X56208Y-33881D01*
X56225Y-33865D01*
X56258Y-33848D01*
X56291Y-33848D01*
X56408Y-34081D02*
X56408Y-33848D01*
X56408Y-33731D02*
X56391Y-33748D01*
X56408Y-33765D01*
X56425Y-33748D01*
X56408Y-33731D01*
X56408Y-33765D01*
X56708Y-34065D02*
X56675Y-34081D01*
X56608Y-34081D01*
X56575Y-34065D01*
X56558Y-34031D01*
X56558Y-33898D01*
X56575Y-33865D01*
X56608Y-33848D01*
X56675Y-33848D01*
X56708Y-33865D01*
X56725Y-33898D01*
X56725Y-33931D01*
X56558Y-33965D01*
X57025Y-33848D02*
X57025Y-34131D01*
X57008Y-34165D01*
X56991Y-34181D01*
X56958Y-34198D01*
X56908Y-34198D01*
X56875Y-34181D01*
X57025Y-34065D02*
X56991Y-34081D01*
X56925Y-34081D01*
X56891Y-34065D01*
X56875Y-34048D01*
X56858Y-34015D01*
X56858Y-33915D01*
X56875Y-33881D01*
X56891Y-33865D01*
X56925Y-33848D01*
X56991Y-33848D01*
X57025Y-33865D01*
X57324Y-34065D02*
X57291Y-34081D01*
X57224Y-34081D01*
X57191Y-34065D01*
X57174Y-34031D01*
X57174Y-33898D01*
X57191Y-33865D01*
X57224Y-33848D01*
X57291Y-33848D01*
X57324Y-33865D01*
X57341Y-33898D01*
X57341Y-33931D01*
X57174Y-33965D01*
X57491Y-34081D02*
X57491Y-33848D01*
X57491Y-33915D02*
X57508Y-33881D01*
X57524Y-33865D01*
X57558Y-33848D01*
X57591Y-33848D01*
X55600Y-34271D02*
X55633Y-34271D01*
X55666Y-34288D01*
X55683Y-34305D01*
X55700Y-34338D01*
X55716Y-34405D01*
X55716Y-34488D01*
X55700Y-34555D01*
X55683Y-34588D01*
X55666Y-34605D01*
X55633Y-34621D01*
X55600Y-34621D01*
X55566Y-34605D01*
X55550Y-34588D01*
X55533Y-34555D01*
X55516Y-34488D01*
X55516Y-34405D01*
X55533Y-34338D01*
X55550Y-34305D01*
X55566Y-34288D01*
X55600Y-34271D01*
X55833Y-34271D02*
X56066Y-34271D01*
X55916Y-34621D01*
X56450Y-34255D02*
X56150Y-34705D01*
X56750Y-34621D02*
X56550Y-34621D01*
X56650Y-34621D02*
X56650Y-34271D01*
X56616Y-34321D01*
X56583Y-34355D01*
X56550Y-34371D01*
X57050Y-34388D02*
X57050Y-34621D01*
X56966Y-34255D02*
X56883Y-34505D01*
X57100Y-34505D01*
X54300Y-32500D02*
X56900Y-32500D01*
X56900Y-32500D02*
X56900Y-30700D01*
X56900Y-30700D02*
X54300Y-30700D01*
X54300Y-30700D02*
X54300Y-32500D01*
X56661Y-31000D02*
G75*
G03X56661Y-31000I-111J0D01*
G74*
G01*
G54D10*
X53514Y-33257D02*
X52885Y-33257D01*
X52885Y-33257D02*
X52885Y-32942D01*
X52885Y-32942D02*
X53514Y-32942D01*
X53514Y-32942D02*
X53514Y-33257D01*
G54D13*
X52100Y-33663D02*
G75*
G03X52100Y-33663I-62J0D01*
G74*
G01*
X51700Y-32700D02*
X52100Y-32700D01*
X51700Y-33725D02*
X52100Y-33725D01*
X52100Y-32700D02*
X52100Y-33725D01*
X51700Y-33725D02*
X51700Y-32700D01*
G54D14*
X53350Y-32350D02*
G75*
G03X53350Y-32350I-50J0D01*
G74*
G01*
X53300Y-31900D02*
X53300Y-32300D01*
X53300Y-32300D02*
X52700Y-32300D01*
X52700Y-32300D02*
X52700Y-31900D01*
X52700Y-31500D02*
X52700Y-31100D01*
X52700Y-31100D02*
X53300Y-31100D01*
X53300Y-31100D02*
X53300Y-31500D01*
X58100Y-32800D02*
G75*
G03X58100Y-32800I-50J0D01*
G74*
G01*
X58500Y-32800D02*
X58100Y-32800D01*
X58100Y-32800D02*
X58100Y-32200D01*
X58100Y-32200D02*
X58500Y-32200D01*
X58900Y-32200D02*
X59300Y-32200D01*
X59300Y-32200D02*
X59300Y-32800D01*
X59300Y-32800D02*
X58900Y-32800D01*
X58100Y-31500D02*
G75*
G03X58100Y-31500I-50J0D01*
G74*
G01*
X58500Y-31500D02*
X58100Y-31500D01*
X58100Y-31500D02*
X58100Y-30900D01*
X58100Y-30900D02*
X58500Y-30900D01*
X58900Y-30900D02*
X59300Y-30900D01*
X59300Y-30900D02*
X59300Y-31500D01*
X59300Y-31500D02*
X58900Y-31500D01*
X53650Y-32450D02*
G75*
G03X53650Y-32450I-50J0D01*
G74*
G01*
X53600Y-32900D02*
X53600Y-32500D01*
X53600Y-32500D02*
X54200Y-32500D01*
X54200Y-32500D02*
X54200Y-32900D01*
X54200Y-33300D02*
X54200Y-33700D01*
X54200Y-33700D02*
X53600Y-33700D01*
X53600Y-33700D02*
X53600Y-33300D01*
X54250Y-32350D02*
G75*
G03X54250Y-32350I-50J0D01*
G74*
G01*
X54200Y-31900D02*
X54200Y-32300D01*
X54200Y-32300D02*
X53600Y-32300D01*
X53600Y-32300D02*
X53600Y-31900D01*
X53600Y-31500D02*
X53600Y-31100D01*
X53600Y-31100D02*
X54200Y-31100D01*
X54200Y-31100D02*
X54200Y-31500D01*
G54D10*
X49575Y-32648D02*
X49575Y-31585D01*
X49575Y-31585D02*
X46386Y-31585D01*
X49575Y-33790D02*
X49575Y-34814D01*
X49575Y-34814D02*
X46386Y-34814D01*
X46386Y-31585D02*
X46386Y-31625D01*
X46386Y-34814D02*
X46386Y-31625D01*
X49311Y-30300D02*
X49311Y-29788D01*
X49311Y-29788D02*
X48288Y-29788D01*
X48288Y-29788D02*
X48288Y-30811D01*
X48288Y-30811D02*
X49311Y-30811D01*
X49311Y-30811D02*
X49311Y-30300D01*
X48186Y-29630D02*
G75*
G03X48186Y-29630I-55J0D01*
G74*
G01*
X48012Y-30300D02*
X48012Y-29512D01*
X48012Y-29512D02*
X49587Y-29512D01*
X49587Y-29512D02*
X49587Y-31087D01*
X49587Y-31087D02*
X48012Y-31087D01*
X48012Y-31087D02*
X48012Y-30300D01*
G54D15*
X47600Y-32400D02*
X48600Y-32400D01*
X48600Y-32400D02*
X48600Y-34400D01*
X48600Y-34400D02*
X47600Y-34400D01*
X47600Y-34400D02*
X47600Y-32400D01*
G54D11*
X50150Y-29450D02*
X50150Y-28950D01*
X50650Y-29450D02*
X50650Y-28960D01*
X50800Y-29450D02*
X50000Y-29450D01*
X50000Y-29450D02*
X50000Y-28950D01*
X50000Y-28950D02*
X50800Y-28950D01*
X50800Y-28950D02*
X50800Y-29450D01*
X50250Y-32950D02*
X50750Y-32950D01*
X50250Y-33450D02*
X50740Y-33450D01*
X50250Y-33600D02*
X50250Y-32800D01*
X50250Y-32800D02*
X50750Y-32800D01*
X50750Y-32800D02*
X50750Y-33600D01*
X50750Y-33600D02*
X50250Y-33600D01*
X51950Y-33950D02*
X51950Y-34450D01*
X51450Y-33950D02*
X51450Y-34440D01*
X51300Y-33950D02*
X52100Y-33950D01*
X52100Y-33950D02*
X52100Y-34450D01*
X52100Y-34450D02*
X51300Y-34450D01*
X51300Y-34450D02*
X51300Y-33950D01*
X50750Y-30550D02*
X50250Y-30550D01*
X50750Y-30050D02*
X50260Y-30050D01*
X50750Y-29900D02*
X50750Y-30700D01*
X50750Y-30700D02*
X50250Y-30700D01*
X50250Y-30700D02*
X50250Y-29900D01*
X50250Y-29900D02*
X50750Y-29900D01*
G54D10*
X60372Y-33314D02*
X60372Y-30085D01*
X59900Y-33314D02*
X61986Y-33314D01*
X61986Y-33314D02*
X61986Y-30085D01*
X61986Y-30085D02*
X59900Y-30085D01*
G54D16*
X53760Y-30712D02*
X53760Y-30967D01*
X53775Y-30997D01*
X53790Y-31012D01*
X53820Y-31027D01*
X53880Y-31027D01*
X53910Y-31012D01*
X53925Y-30997D01*
X53940Y-30967D01*
X53940Y-30712D01*
X54060Y-30712D02*
X54255Y-30712D01*
X54150Y-30832D01*
X54195Y-30832D01*
X54225Y-30847D01*
X54240Y-30862D01*
X54255Y-30892D01*
X54255Y-30967D01*
X54240Y-30997D01*
X54225Y-31012D01*
X54195Y-31027D01*
X54105Y-31027D01*
X54075Y-31012D01*
X54060Y-30997D01*
G54D17*
X51321Y-33228D02*
X51564Y-33228D01*
X51592Y-33214D01*
X51607Y-33200D01*
X51621Y-33171D01*
X51621Y-33114D01*
X51607Y-33085D01*
X51592Y-33071D01*
X51564Y-33057D01*
X51321Y-33057D01*
X51350Y-32928D02*
X51335Y-32914D01*
X51321Y-32885D01*
X51321Y-32814D01*
X51335Y-32785D01*
X51350Y-32771D01*
X51378Y-32757D01*
X51407Y-32757D01*
X51450Y-32771D01*
X51621Y-32942D01*
X51621Y-32757D01*
G54D14*
X51923Y-33695D02*
X51923Y-33601D01*
X51979Y-33714D02*
X51782Y-33648D01*
X51979Y-33583D01*
X51979Y-33517D02*
X51782Y-33517D01*
X51782Y-33442D01*
X51792Y-33423D01*
X51801Y-33414D01*
X51820Y-33404D01*
X51848Y-33404D01*
X51867Y-33414D01*
X51876Y-33423D01*
X51885Y-33442D01*
X51885Y-33517D01*
X51782Y-33339D02*
X51782Y-33207D01*
X51979Y-33292D01*
X51782Y-33151D02*
X51782Y-33029D01*
X51857Y-33095D01*
X51857Y-33067D01*
X51867Y-33048D01*
X51876Y-33038D01*
X51895Y-33029D01*
X51942Y-33029D01*
X51960Y-33038D01*
X51970Y-33048D01*
X51979Y-33067D01*
X51979Y-33123D01*
X51970Y-33142D01*
X51960Y-33151D01*
X51782Y-32963D02*
X51782Y-32841D01*
X51857Y-32907D01*
X51857Y-32879D01*
X51867Y-32860D01*
X51876Y-32851D01*
X51895Y-32841D01*
X51942Y-32841D01*
X51960Y-32851D01*
X51970Y-32860D01*
X51979Y-32879D01*
X51979Y-32935D01*
X51970Y-32954D01*
X51960Y-32963D01*
X51782Y-32776D02*
X51782Y-32654D01*
X51857Y-32720D01*
X51857Y-32691D01*
X51867Y-32673D01*
X51876Y-32663D01*
X51895Y-32654D01*
X51942Y-32654D01*
X51960Y-32663D01*
X51970Y-32673D01*
X51979Y-32691D01*
X51979Y-32748D01*
X51970Y-32766D01*
X51960Y-32776D01*
G54D18*
X52579Y-32032D02*
X52485Y-32098D01*
X52579Y-32145D02*
X52382Y-32145D01*
X52382Y-32070D01*
X52392Y-32051D01*
X52401Y-32042D01*
X52420Y-32032D01*
X52448Y-32032D01*
X52467Y-32042D01*
X52476Y-32051D01*
X52485Y-32070D01*
X52485Y-32145D01*
X52382Y-31854D02*
X52382Y-31948D01*
X52476Y-31957D01*
X52467Y-31948D01*
X52457Y-31929D01*
X52457Y-31882D01*
X52467Y-31863D01*
X52476Y-31854D01*
X52495Y-31845D01*
X52542Y-31845D01*
X52560Y-31854D01*
X52570Y-31863D01*
X52579Y-31882D01*
X52579Y-31929D01*
X52570Y-31948D01*
X52560Y-31957D01*
X52579Y-31440D02*
X52485Y-31506D01*
X52579Y-31553D02*
X52382Y-31553D01*
X52382Y-31478D01*
X52392Y-31459D01*
X52401Y-31450D01*
X52420Y-31440D01*
X52448Y-31440D01*
X52467Y-31450D01*
X52476Y-31459D01*
X52485Y-31478D01*
X52485Y-31553D01*
X52579Y-31356D02*
X52382Y-31356D01*
X52382Y-31281D01*
X52392Y-31262D01*
X52401Y-31253D01*
X52420Y-31243D01*
X52448Y-31243D01*
X52467Y-31253D01*
X52476Y-31262D01*
X52485Y-31281D01*
X52485Y-31356D01*
X52382Y-31159D02*
X52542Y-31159D01*
X52560Y-31149D01*
X52570Y-31140D01*
X52579Y-31121D01*
X52579Y-31084D01*
X52570Y-31065D01*
X52560Y-31056D01*
X52542Y-31046D01*
X52382Y-31046D01*
X58067Y-32079D02*
X58001Y-31985D01*
X57954Y-32079D02*
X57954Y-31882D01*
X58029Y-31882D01*
X58048Y-31892D01*
X58057Y-31901D01*
X58067Y-31920D01*
X58067Y-31948D01*
X58057Y-31967D01*
X58048Y-31976D01*
X58029Y-31985D01*
X57954Y-31985D01*
X58236Y-31948D02*
X58236Y-32079D01*
X58189Y-31873D02*
X58142Y-32014D01*
X58264Y-32014D01*
X58992Y-31882D02*
X59010Y-31882D01*
X59029Y-31892D01*
X59039Y-31901D01*
X59048Y-31920D01*
X59057Y-31957D01*
X59057Y-32004D01*
X59048Y-32042D01*
X59039Y-32060D01*
X59029Y-32070D01*
X59010Y-32079D01*
X58992Y-32079D01*
X58973Y-32070D01*
X58963Y-32060D01*
X58954Y-32042D01*
X58945Y-32004D01*
X58945Y-31957D01*
X58954Y-31920D01*
X58963Y-31901D01*
X58973Y-31892D01*
X58992Y-31882D01*
X59254Y-32079D02*
X59189Y-31985D01*
X59142Y-32079D02*
X59142Y-31882D01*
X59217Y-31882D01*
X59236Y-31892D01*
X59245Y-31901D01*
X59254Y-31920D01*
X59254Y-31948D01*
X59245Y-31967D01*
X59236Y-31976D01*
X59217Y-31985D01*
X59142Y-31985D01*
X58067Y-30779D02*
X58001Y-30685D01*
X57954Y-30779D02*
X57954Y-30582D01*
X58029Y-30582D01*
X58048Y-30592D01*
X58057Y-30601D01*
X58067Y-30620D01*
X58067Y-30648D01*
X58057Y-30667D01*
X58048Y-30676D01*
X58029Y-30685D01*
X57954Y-30685D01*
X58142Y-30601D02*
X58151Y-30592D01*
X58170Y-30582D01*
X58217Y-30582D01*
X58236Y-30592D01*
X58245Y-30601D01*
X58254Y-30620D01*
X58254Y-30639D01*
X58245Y-30667D01*
X58132Y-30779D01*
X58254Y-30779D01*
X58745Y-30648D02*
X58745Y-30779D01*
X58698Y-30573D02*
X58651Y-30714D01*
X58773Y-30714D01*
X58829Y-30582D02*
X58960Y-30582D01*
X58876Y-30779D01*
X59036Y-30779D02*
X59036Y-30582D01*
X59148Y-30779D02*
X59064Y-30667D01*
X59148Y-30582D02*
X59036Y-30695D01*
X54479Y-33632D02*
X54385Y-33698D01*
X54479Y-33745D02*
X54282Y-33745D01*
X54282Y-33670D01*
X54292Y-33651D01*
X54301Y-33642D01*
X54320Y-33632D01*
X54348Y-33632D01*
X54367Y-33642D01*
X54376Y-33651D01*
X54385Y-33670D01*
X54385Y-33745D01*
X54479Y-33445D02*
X54479Y-33557D01*
X54479Y-33501D02*
X54282Y-33501D01*
X54310Y-33520D01*
X54329Y-33539D01*
X54339Y-33557D01*
X54479Y-32917D02*
X54479Y-33029D01*
X54479Y-32973D02*
X54282Y-32973D01*
X54310Y-32992D01*
X54329Y-33011D01*
X54339Y-33029D01*
X54282Y-32795D02*
X54282Y-32776D01*
X54292Y-32757D01*
X54301Y-32748D01*
X54320Y-32739D01*
X54357Y-32729D01*
X54404Y-32729D01*
X54442Y-32739D01*
X54460Y-32748D01*
X54470Y-32757D01*
X54479Y-32776D01*
X54479Y-32795D01*
X54470Y-32814D01*
X54460Y-32823D01*
X54442Y-32832D01*
X54404Y-32842D01*
X54357Y-32842D01*
X54320Y-32832D01*
X54301Y-32823D01*
X54292Y-32814D01*
X54282Y-32795D01*
X54479Y-32645D02*
X54282Y-32645D01*
X54404Y-32626D02*
X54479Y-32570D01*
X54348Y-32570D02*
X54423Y-32645D01*
X53579Y-32132D02*
X53485Y-32198D01*
X53579Y-32245D02*
X53382Y-32245D01*
X53382Y-32170D01*
X53392Y-32151D01*
X53401Y-32142D01*
X53420Y-32132D01*
X53448Y-32132D01*
X53467Y-32142D01*
X53476Y-32151D01*
X53485Y-32170D01*
X53485Y-32245D01*
X53382Y-32067D02*
X53382Y-31945D01*
X53457Y-32010D01*
X53457Y-31982D01*
X53467Y-31963D01*
X53476Y-31954D01*
X53495Y-31945D01*
X53542Y-31945D01*
X53560Y-31954D01*
X53570Y-31963D01*
X53579Y-31982D01*
X53579Y-32039D01*
X53570Y-32057D01*
X53560Y-32067D01*
X53579Y-31440D02*
X53485Y-31506D01*
X53579Y-31553D02*
X53382Y-31553D01*
X53382Y-31478D01*
X53392Y-31459D01*
X53401Y-31450D01*
X53420Y-31440D01*
X53448Y-31440D01*
X53467Y-31450D01*
X53476Y-31459D01*
X53485Y-31478D01*
X53485Y-31553D01*
X53579Y-31356D02*
X53382Y-31356D01*
X53382Y-31281D01*
X53392Y-31262D01*
X53401Y-31253D01*
X53420Y-31243D01*
X53448Y-31243D01*
X53467Y-31253D01*
X53476Y-31262D01*
X53485Y-31281D01*
X53485Y-31356D01*
X53382Y-31159D02*
X53542Y-31159D01*
X53560Y-31149D01*
X53570Y-31140D01*
X53579Y-31121D01*
X53579Y-31084D01*
X53570Y-31065D01*
X53560Y-31056D01*
X53542Y-31046D01*
X53382Y-31046D01*
G54D10*
X49253Y-33640D02*
X49271Y-33584D01*
X49290Y-33565D01*
X49328Y-33546D01*
X49384Y-33546D01*
X49421Y-33565D01*
X49440Y-33584D01*
X49459Y-33621D01*
X49459Y-33771D01*
X49065Y-33771D01*
X49065Y-33640D01*
X49084Y-33603D01*
X49103Y-33584D01*
X49140Y-33565D01*
X49178Y-33565D01*
X49215Y-33584D01*
X49234Y-33603D01*
X49253Y-33640D01*
X49253Y-33771D01*
X49346Y-33396D02*
X49346Y-33209D01*
X49459Y-33434D02*
X49065Y-33303D01*
X49459Y-33171D01*
X49065Y-33096D02*
X49065Y-32871D01*
X49459Y-32984D02*
X49065Y-32984D01*
X49065Y-32796D02*
X49065Y-32571D01*
X49459Y-32684D02*
X49065Y-32684D01*
G54D19*
X50380Y-29636D02*
X50374Y-29642D01*
X50357Y-29647D01*
X50346Y-29647D01*
X50329Y-29642D01*
X50318Y-29630D01*
X50312Y-29619D01*
X50307Y-29597D01*
X50307Y-29580D01*
X50312Y-29557D01*
X50318Y-29546D01*
X50329Y-29535D01*
X50346Y-29529D01*
X50357Y-29529D01*
X50374Y-29535D01*
X50380Y-29541D01*
X50481Y-29529D02*
X50459Y-29529D01*
X50447Y-29535D01*
X50442Y-29541D01*
X50430Y-29557D01*
X50425Y-29580D01*
X50425Y-29625D01*
X50430Y-29636D01*
X50436Y-29642D01*
X50447Y-29647D01*
X50470Y-29647D01*
X50481Y-29642D01*
X50487Y-29636D01*
X50492Y-29625D01*
X50492Y-29597D01*
X50487Y-29585D01*
X50481Y-29580D01*
X50470Y-29574D01*
X50447Y-29574D01*
X50436Y-29580D01*
X50430Y-29585D01*
X50425Y-29597D01*
X50228Y-28741D02*
X50234Y-28735D01*
X50245Y-28729D01*
X50273Y-28729D01*
X50284Y-28735D01*
X50290Y-28741D01*
X50296Y-28752D01*
X50296Y-28763D01*
X50290Y-28780D01*
X50223Y-28847D01*
X50296Y-28847D01*
X50346Y-28836D02*
X50352Y-28842D01*
X50346Y-28847D01*
X50341Y-28842D01*
X50346Y-28836D01*
X50346Y-28847D01*
X50397Y-28741D02*
X50402Y-28735D01*
X50414Y-28729D01*
X50442Y-28729D01*
X50453Y-28735D01*
X50459Y-28741D01*
X50464Y-28752D01*
X50464Y-28763D01*
X50459Y-28780D01*
X50391Y-28847D01*
X50464Y-28847D01*
X50515Y-28769D02*
X50515Y-28847D01*
X50515Y-28780D02*
X50520Y-28774D01*
X50532Y-28769D01*
X50548Y-28769D01*
X50560Y-28774D01*
X50565Y-28785D01*
X50565Y-28847D01*
X50136Y-33219D02*
X50142Y-33225D01*
X50147Y-33242D01*
X50147Y-33253D01*
X50142Y-33270D01*
X50130Y-33281D01*
X50119Y-33287D01*
X50097Y-33292D01*
X50080Y-33292D01*
X50057Y-33287D01*
X50046Y-33281D01*
X50035Y-33270D01*
X50029Y-33253D01*
X50029Y-33242D01*
X50035Y-33225D01*
X50041Y-33219D01*
X50147Y-33107D02*
X50147Y-33174D01*
X50147Y-33141D02*
X50029Y-33141D01*
X50046Y-33152D01*
X50057Y-33163D01*
X50063Y-33174D01*
X50947Y-33219D02*
X50947Y-33287D01*
X50947Y-33253D02*
X50829Y-33253D01*
X50846Y-33264D01*
X50857Y-33275D01*
X50863Y-33287D01*
X50869Y-33118D02*
X50947Y-33118D01*
X50869Y-33169D02*
X50930Y-33169D01*
X50942Y-33163D01*
X50947Y-33152D01*
X50947Y-33135D01*
X50942Y-33124D01*
X50936Y-33118D01*
X51480Y-33836D02*
X51474Y-33842D01*
X51457Y-33847D01*
X51446Y-33847D01*
X51429Y-33842D01*
X51418Y-33830D01*
X51412Y-33819D01*
X51407Y-33797D01*
X51407Y-33780D01*
X51412Y-33757D01*
X51418Y-33746D01*
X51429Y-33735D01*
X51446Y-33729D01*
X51457Y-33729D01*
X51474Y-33735D01*
X51480Y-33741D01*
X51525Y-33741D02*
X51530Y-33735D01*
X51542Y-33729D01*
X51570Y-33729D01*
X51581Y-33735D01*
X51587Y-33741D01*
X51592Y-33752D01*
X51592Y-33763D01*
X51587Y-33780D01*
X51519Y-33847D01*
X51592Y-33847D01*
X51680Y-34647D02*
X51612Y-34647D01*
X51646Y-34647D02*
X51646Y-34529D01*
X51635Y-34546D01*
X51624Y-34557D01*
X51612Y-34563D01*
X51781Y-34569D02*
X51781Y-34647D01*
X51730Y-34569D02*
X51730Y-34630D01*
X51736Y-34642D01*
X51747Y-34647D01*
X51764Y-34647D01*
X51775Y-34642D01*
X51781Y-34636D01*
X50136Y-30019D02*
X50142Y-30025D01*
X50147Y-30042D01*
X50147Y-30053D01*
X50142Y-30070D01*
X50130Y-30081D01*
X50119Y-30087D01*
X50097Y-30092D01*
X50080Y-30092D01*
X50057Y-30087D01*
X50046Y-30081D01*
X50035Y-30070D01*
X50029Y-30053D01*
X50029Y-30042D01*
X50035Y-30025D01*
X50041Y-30019D01*
X50029Y-29912D02*
X50029Y-29969D01*
X50085Y-29974D01*
X50080Y-29969D01*
X50074Y-29957D01*
X50074Y-29929D01*
X50080Y-29918D01*
X50085Y-29912D01*
X50097Y-29907D01*
X50125Y-29907D01*
X50136Y-29912D01*
X50142Y-29918D01*
X50147Y-29929D01*
X50147Y-29957D01*
X50142Y-29969D01*
X50136Y-29974D01*
X50829Y-30243D02*
X50829Y-30232D01*
X50835Y-30220D01*
X50841Y-30215D01*
X50852Y-30209D01*
X50874Y-30203D01*
X50902Y-30203D01*
X50925Y-30209D01*
X50936Y-30215D01*
X50942Y-30220D01*
X50947Y-30232D01*
X50947Y-30243D01*
X50942Y-30254D01*
X50936Y-30260D01*
X50925Y-30265D01*
X50902Y-30271D01*
X50874Y-30271D01*
X50852Y-30265D01*
X50841Y-30260D01*
X50835Y-30254D01*
X50829Y-30243D01*
X50936Y-30153D02*
X50942Y-30147D01*
X50947Y-30153D01*
X50942Y-30158D01*
X50936Y-30153D01*
X50947Y-30153D01*
X50947Y-30035D02*
X50947Y-30102D01*
X50947Y-30069D02*
X50829Y-30069D01*
X50846Y-30080D01*
X50857Y-30091D01*
X50863Y-30102D01*
X50869Y-29934D02*
X50947Y-29934D01*
X50869Y-29984D02*
X50930Y-29984D01*
X50942Y-29979D01*
X50947Y-29967D01*
X50947Y-29951D01*
X50942Y-29939D01*
X50936Y-29934D01*
G54D10*
X59759Y-30703D02*
X59365Y-30703D01*
X59365Y-30553D01*
X59384Y-30515D01*
X59403Y-30496D01*
X59440Y-30478D01*
X59496Y-30478D01*
X59534Y-30496D01*
X59553Y-30515D01*
X59571Y-30553D01*
X59571Y-30703D01*
X59759Y-30084D02*
X59571Y-30215D01*
X59759Y-30309D02*
X59365Y-30309D01*
X59365Y-30159D01*
X59384Y-30121D01*
X59403Y-30103D01*
X59440Y-30084D01*
X59496Y-30084D01*
X59534Y-30103D01*
X59553Y-30121D01*
X59571Y-30159D01*
X59571Y-30309D01*
X59365Y-29840D02*
X59365Y-29765D01*
X59384Y-29728D01*
X59421Y-29690D01*
X59496Y-29671D01*
X59628Y-29671D01*
X59703Y-29690D01*
X59740Y-29728D01*
X59759Y-29765D01*
X59759Y-29840D01*
X59740Y-29878D01*
X59703Y-29915D01*
X59628Y-29934D01*
X59496Y-29934D01*
X59421Y-29915D01*
X59384Y-29878D01*
X59365Y-29840D01*
X59384Y-29296D02*
X59365Y-29334D01*
X59365Y-29390D01*
X59384Y-29446D01*
X59421Y-29484D01*
X59459Y-29503D01*
X59534Y-29521D01*
X59590Y-29521D01*
X59665Y-29503D01*
X59703Y-29484D01*
X59740Y-29446D01*
X59759Y-29390D01*
X59759Y-29353D01*
X59740Y-29296D01*
X59721Y-29278D01*
X59590Y-29278D01*
X59590Y-29353D01*
M02*
