G04 (created by PCBNEW (2013-05-18 BZR 4017)-stable) date Thu 17 Jul 2014 20:47:08 CST*
%MOIN*%
G04 Gerber Fmt 3.4, Leading zero omitted, Abs format*
%FSLAX34Y34*%
G01*
G70*
G90*
G04 APERTURE LIST*
%ADD10C,0.00590551*%
%ADD11R,0.0165X0.0579*%
%ADD12R,0.015748X0.0200787*%
%ADD13R,0.0394X0.0315*%
%ADD14R,0.055X0.035*%
%ADD15R,0.035X0.055*%
%ADD16R,0.137795X0.0393701*%
%ADD17R,0.133858X0.0590551*%
%ADD18R,0.106299X0.102362*%
%ADD19R,0.0590551X0.0137795*%
%ADD20R,0.0137795X0.0590551*%
%ADD21R,0.069X0.069*%
%ADD22C,0.069*%
%ADD23R,0.0512X0.059*%
%ADD24R,0.059X0.0512*%
%ADD25C,0.039*%
G04 APERTURE END LIST*
G54D10*
G54D11*
X55728Y-30498D03*
X55472Y-30498D03*
X55216Y-30498D03*
X54960Y-30498D03*
X56492Y-32700D03*
X56496Y-30498D03*
X56240Y-30498D03*
X55984Y-30498D03*
X54704Y-32702D03*
X54960Y-32702D03*
X55216Y-32702D03*
X55472Y-32702D03*
X55728Y-32702D03*
X55984Y-32702D03*
X54704Y-30498D03*
X56240Y-32700D03*
X56752Y-30498D03*
X54448Y-30498D03*
X54448Y-32702D03*
X56752Y-32702D03*
G54D12*
X53003Y-32844D03*
X53396Y-32844D03*
X53200Y-33355D03*
G54D13*
X51467Y-33200D03*
X52333Y-32825D03*
X52333Y-33575D03*
G54D14*
X53000Y-32075D03*
X53000Y-31325D03*
G54D15*
X58325Y-32500D03*
X59075Y-32500D03*
X58325Y-31200D03*
X59075Y-31200D03*
G54D14*
X53900Y-32725D03*
X53900Y-33475D03*
X53900Y-32075D03*
X53900Y-31325D03*
G54D16*
X49300Y-33593D03*
X49300Y-32806D03*
G54D17*
X47114Y-34538D03*
X47114Y-31861D03*
G54D18*
X48800Y-30300D03*
G54D19*
X47855Y-29807D03*
X47855Y-30004D03*
X47855Y-30201D03*
X47855Y-30398D03*
X47855Y-30595D03*
X47855Y-30792D03*
G54D20*
X48307Y-31244D03*
X48504Y-31244D03*
X48701Y-31244D03*
X48898Y-31244D03*
X49095Y-31244D03*
X49292Y-31244D03*
G54D19*
X49744Y-30792D03*
X49744Y-30595D03*
X49744Y-30398D03*
X49744Y-30201D03*
X49744Y-30004D03*
X49744Y-29807D03*
G54D20*
X49292Y-29355D03*
X49095Y-29355D03*
X48898Y-29355D03*
X48701Y-29355D03*
X48504Y-29355D03*
X48307Y-29355D03*
G54D21*
X48100Y-32900D03*
G54D22*
X48100Y-33900D03*
G54D23*
X50025Y-29200D03*
X50775Y-29200D03*
G54D24*
X50500Y-32825D03*
X50500Y-33575D03*
G54D23*
X52075Y-34200D03*
X51325Y-34200D03*
G54D24*
X50500Y-30675D03*
X50500Y-29925D03*
G54D25*
X59900Y-31450D03*
X59900Y-31950D03*
X59900Y-30950D03*
X59900Y-32450D03*
X59900Y-30450D03*
X59900Y-32950D03*
M02*
