G04 (created by PCBNEW (2013-05-18 BZR 4017)-stable) date Thu 17 Jul 2014 20:47:08 CST*
%MOIN*%
G04 Gerber Fmt 3.4, Leading zero omitted, Abs format*
%FSLAX34Y34*%
G01*
G70*
G90*
G04 APERTURE LIST*
%ADD10C,0.00590551*%
%ADD11R,0.0165X0.0579*%
%ADD12R,0.015748X0.0200787*%
%ADD13R,0.0394X0.0315*%
%ADD14R,0.055X0.035*%
%ADD15R,0.035X0.055*%
%ADD16R,0.137795X0.0393701*%
%ADD17R,0.133858X0.0590551*%
%ADD18R,0.106299X0.102362*%
%ADD19R,0.0590551X0.0137795*%
%ADD20R,0.0137795X0.0590551*%
%ADD21R,0.069X0.069*%
%ADD22C,0.069*%
%ADD23R,0.0512X0.059*%
%ADD24R,0.059X0.0512*%
%ADD25C,0.039*%
%ADD26C,0.02*%
%ADD27C,0.02*%
%ADD28C,0.04*%
%ADD29C,0.008*%
%ADD30C,0.01*%
%ADD31C,0.006*%
G04 APERTURE END LIST*
G54D10*
G54D11*
X55728Y-30498D03*
X55472Y-30498D03*
X55216Y-30498D03*
X54960Y-30498D03*
X56492Y-32700D03*
X56496Y-30498D03*
X56240Y-30498D03*
X55984Y-30498D03*
X54704Y-32702D03*
X54960Y-32702D03*
X55216Y-32702D03*
X55472Y-32702D03*
X55728Y-32702D03*
X55984Y-32702D03*
X54704Y-30498D03*
X56240Y-32700D03*
X56752Y-30498D03*
X54448Y-30498D03*
X54448Y-32702D03*
X56752Y-32702D03*
G54D12*
X53003Y-32844D03*
X53396Y-32844D03*
X53200Y-33355D03*
G54D13*
X51467Y-33200D03*
X52333Y-32825D03*
X52333Y-33575D03*
G54D14*
X53000Y-32075D03*
X53000Y-31325D03*
G54D15*
X58325Y-32500D03*
X59075Y-32500D03*
X58325Y-31200D03*
X59075Y-31200D03*
G54D14*
X53900Y-32725D03*
X53900Y-33475D03*
X53900Y-32075D03*
X53900Y-31325D03*
G54D16*
X49300Y-33593D03*
X49300Y-32806D03*
G54D17*
X47114Y-34538D03*
X47114Y-31861D03*
G54D18*
X48800Y-30300D03*
G54D19*
X47855Y-29807D03*
X47855Y-30004D03*
X47855Y-30201D03*
X47855Y-30398D03*
X47855Y-30595D03*
X47855Y-30792D03*
G54D20*
X48307Y-31244D03*
X48504Y-31244D03*
X48701Y-31244D03*
X48898Y-31244D03*
X49095Y-31244D03*
X49292Y-31244D03*
G54D19*
X49744Y-30792D03*
X49744Y-30595D03*
X49744Y-30398D03*
X49744Y-30201D03*
X49744Y-30004D03*
X49744Y-29807D03*
G54D20*
X49292Y-29355D03*
X49095Y-29355D03*
X48898Y-29355D03*
X48701Y-29355D03*
X48504Y-29355D03*
X48307Y-29355D03*
G54D21*
X48100Y-32900D03*
G54D22*
X48100Y-33900D03*
G54D23*
X50025Y-29200D03*
X50775Y-29200D03*
G54D24*
X50500Y-32825D03*
X50500Y-33575D03*
G54D23*
X52075Y-34200D03*
X51325Y-34200D03*
G54D24*
X50500Y-30675D03*
X50500Y-29925D03*
G54D25*
X59900Y-31450D03*
X59900Y-31950D03*
X59900Y-30950D03*
X59900Y-32450D03*
X59900Y-30450D03*
X59900Y-32950D03*
G54D26*
X55800Y-29700D03*
X52500Y-29700D03*
X58700Y-29900D03*
X57400Y-29700D03*
X54500Y-33700D03*
X57300Y-31400D03*
X58000Y-33800D03*
X52900Y-29600D03*
X58700Y-33800D03*
X47800Y-29600D03*
X54300Y-30600D03*
X52400Y-32000D03*
X49200Y-31700D03*
X54700Y-30600D03*
X53000Y-31700D03*
X57700Y-30300D03*
X54400Y-33300D03*
X57000Y-32900D03*
X50775Y-29200D03*
X53000Y-33600D03*
X57300Y-32100D03*
X57300Y-31800D03*
X49212Y-32287D03*
X48762Y-31830D03*
X49600Y-32200D03*
X51600Y-31300D03*
X51800Y-32200D03*
X57400Y-30800D03*
X54900Y-32000D03*
X48500Y-31900D03*
G54D27*
X48100Y-32900D02*
X49206Y-32900D01*
X49206Y-32900D02*
X49300Y-32806D01*
X50500Y-32825D02*
X51675Y-32825D01*
X52275Y-33575D02*
X52333Y-33575D01*
X51900Y-33200D02*
X52275Y-33575D01*
X51900Y-33000D02*
X51900Y-33200D01*
X51700Y-32800D02*
X51900Y-33000D01*
X51675Y-32825D02*
X51700Y-32800D01*
G54D28*
X49300Y-32806D02*
X50481Y-32806D01*
X50481Y-32806D02*
X50500Y-32825D01*
G54D29*
X55472Y-30498D02*
X55472Y-30228D01*
X55800Y-29900D02*
X55800Y-29700D01*
X55472Y-30228D02*
X55800Y-29900D01*
X55000Y-30458D02*
X54960Y-30498D01*
X55000Y-30200D02*
X55000Y-30458D01*
X54900Y-30100D02*
X55000Y-30200D01*
X54600Y-29800D02*
X54900Y-30100D01*
X53100Y-29800D02*
X54600Y-29800D01*
X53000Y-29900D02*
X53100Y-29800D01*
X52700Y-29900D02*
X53000Y-29900D01*
X52500Y-29700D02*
X52700Y-29900D01*
X56496Y-30498D02*
X56496Y-30104D01*
X58600Y-30000D02*
X58700Y-29900D01*
X56600Y-30000D02*
X58600Y-30000D01*
X56496Y-30104D02*
X56600Y-30000D01*
G54D30*
X53396Y-32844D02*
X53780Y-32844D01*
X53780Y-32844D02*
X53900Y-32725D01*
X54448Y-32702D02*
X53923Y-32702D01*
X53923Y-32702D02*
X53900Y-32725D01*
G54D29*
X55728Y-30172D02*
X55728Y-30498D01*
X56000Y-29900D02*
X55728Y-30172D01*
X56300Y-29900D02*
X56000Y-29900D01*
X56400Y-29800D02*
X56300Y-29900D01*
X56500Y-29800D02*
X56400Y-29800D01*
X57300Y-29800D02*
X56500Y-29800D01*
X57400Y-29700D02*
X57300Y-29800D01*
G54D30*
X54704Y-32702D02*
X54704Y-33496D01*
X54704Y-33496D02*
X54500Y-33700D01*
G54D29*
X56000Y-30514D02*
X55984Y-30498D01*
X56000Y-30900D02*
X56000Y-30514D01*
X56100Y-31000D02*
X56000Y-30900D01*
X56300Y-31200D02*
X56100Y-31000D01*
X57100Y-31200D02*
X56300Y-31200D01*
X57600Y-31700D02*
X57300Y-31400D01*
X57300Y-31400D02*
X57100Y-31200D01*
X57600Y-31800D02*
X57600Y-31700D01*
X57600Y-33100D02*
X57600Y-31800D01*
X58000Y-33500D02*
X57600Y-33100D01*
X58000Y-33800D02*
X58000Y-33500D01*
X55216Y-30498D02*
X55216Y-30184D01*
X54700Y-29600D02*
X52900Y-29600D01*
X55200Y-30100D02*
X54700Y-29600D01*
X55200Y-30168D02*
X55200Y-30100D01*
X55216Y-30184D02*
X55200Y-30168D01*
X56240Y-30498D02*
X56240Y-30840D01*
X58600Y-33800D02*
X58700Y-33800D01*
X57800Y-33000D02*
X58600Y-33800D01*
X57800Y-31600D02*
X57800Y-33000D01*
X57200Y-31000D02*
X57800Y-31600D01*
X56400Y-31000D02*
X57200Y-31000D01*
X56240Y-30840D02*
X56400Y-31000D01*
X47855Y-29807D02*
X47855Y-29655D01*
X47855Y-29655D02*
X47800Y-29600D01*
X51100Y-31900D02*
X52300Y-31900D01*
X49300Y-31800D02*
X49500Y-31800D01*
X49500Y-31800D02*
X49600Y-31900D01*
X49600Y-31900D02*
X51100Y-31900D01*
X49200Y-31700D02*
X49300Y-31800D01*
X54402Y-30498D02*
X54448Y-30498D01*
X54300Y-30600D02*
X54402Y-30498D01*
X52300Y-31900D02*
X52400Y-32000D01*
X49095Y-31244D02*
X49095Y-31595D01*
X49095Y-31595D02*
X49200Y-31700D01*
X51100Y-31700D02*
X53000Y-31700D01*
X51100Y-31700D02*
X50300Y-31700D01*
X49292Y-31392D02*
X49600Y-31700D01*
X49600Y-31700D02*
X50300Y-31700D01*
X49292Y-31244D02*
X49292Y-31392D01*
X54704Y-30596D02*
X54704Y-30498D01*
X54700Y-30600D02*
X54704Y-30596D01*
X53000Y-31325D02*
X53000Y-30800D01*
X48504Y-28895D02*
X48640Y-28759D01*
X48640Y-28759D02*
X51159Y-28759D01*
X51159Y-28759D02*
X51200Y-28800D01*
X48504Y-28895D02*
X48504Y-29355D01*
X51600Y-29200D02*
X51200Y-28800D01*
X51600Y-29400D02*
X51600Y-29200D01*
X53000Y-30800D02*
X51600Y-29400D01*
G54D30*
X55216Y-32702D02*
X55216Y-31916D01*
X53100Y-31500D02*
X53000Y-31325D01*
X53300Y-31700D02*
X53100Y-31500D01*
X55000Y-31700D02*
X53300Y-31700D01*
X55216Y-31916D02*
X55000Y-31700D01*
G54D29*
X51159Y-28619D02*
X51219Y-28619D01*
X48307Y-28892D02*
X48600Y-28600D01*
X48600Y-28600D02*
X51140Y-28600D01*
X51140Y-28600D02*
X51159Y-28619D01*
X48307Y-29355D02*
X48307Y-28892D01*
X53175Y-30600D02*
X53900Y-31325D01*
X53100Y-30600D02*
X53175Y-30600D01*
X52100Y-29600D02*
X53100Y-30600D01*
X52100Y-29500D02*
X52100Y-29600D01*
X51219Y-28619D02*
X52100Y-29500D01*
G54D30*
X55472Y-32702D02*
X55472Y-31672D01*
X55125Y-31325D02*
X53900Y-31325D01*
X55472Y-31672D02*
X55125Y-31325D01*
X59900Y-30950D02*
X59750Y-30950D01*
X58000Y-30600D02*
X57700Y-30300D01*
X59400Y-30600D02*
X58000Y-30600D01*
X59750Y-30950D02*
X59400Y-30600D01*
G54D31*
X53900Y-33475D02*
X54225Y-33475D01*
X54225Y-33475D02*
X54400Y-33300D01*
X56752Y-32702D02*
X56802Y-32702D01*
X56802Y-32702D02*
X57000Y-32900D01*
G54D29*
X50500Y-29475D02*
X50775Y-29200D01*
X50500Y-29925D02*
X50500Y-29475D01*
G54D27*
X48100Y-33900D02*
X48200Y-33900D01*
X48506Y-33593D02*
X49300Y-33593D01*
X48200Y-33900D02*
X48506Y-33593D01*
X51325Y-34200D02*
X51325Y-33342D01*
X51325Y-33342D02*
X51467Y-33200D01*
X50500Y-33575D02*
X50700Y-33575D01*
X50700Y-33575D02*
X51325Y-34200D01*
G54D29*
X49744Y-29807D02*
X50382Y-29807D01*
X50382Y-29807D02*
X50500Y-29925D01*
G54D28*
X49300Y-33593D02*
X50481Y-33593D01*
X50481Y-33593D02*
X50500Y-33575D01*
G54D30*
X53144Y-33355D02*
X53200Y-33355D01*
X53000Y-33600D02*
X53144Y-33355D01*
G54D29*
X55984Y-32702D02*
X55984Y-32316D01*
X56200Y-32100D02*
X57300Y-32100D01*
X55984Y-32316D02*
X56200Y-32100D01*
X55728Y-32272D02*
X55728Y-32702D01*
X56100Y-31900D02*
X55728Y-32272D01*
X57200Y-31900D02*
X56100Y-31900D01*
X57300Y-31800D02*
X57200Y-31900D01*
G54D30*
X59900Y-31450D02*
X59325Y-31450D01*
X59325Y-31450D02*
X59075Y-31200D01*
X59900Y-32450D02*
X59125Y-32450D01*
X59125Y-32450D02*
X59075Y-32500D01*
G54D29*
X48898Y-31244D02*
X48898Y-31623D01*
X48964Y-31689D02*
X48898Y-31623D01*
X48964Y-31764D02*
X48964Y-31689D01*
X49100Y-31900D02*
X48964Y-31764D01*
X49100Y-32175D02*
X49100Y-31900D01*
X49100Y-32175D02*
X49212Y-32287D01*
X49212Y-32287D02*
X49225Y-32300D01*
X48701Y-31244D02*
X48701Y-31701D01*
X48701Y-31701D02*
X48762Y-31830D01*
X49095Y-29355D02*
X49095Y-28904D01*
X49725Y-28900D02*
X50025Y-29200D01*
X49100Y-28900D02*
X49725Y-28900D01*
X49095Y-28904D02*
X49100Y-28900D01*
G54D27*
X51800Y-32200D02*
X49600Y-32200D01*
X52333Y-32825D02*
X52333Y-32733D01*
X51375Y-30675D02*
X50500Y-30675D01*
X51600Y-30900D02*
X51375Y-30675D01*
X51600Y-31300D02*
X51600Y-30900D01*
X52333Y-32733D02*
X51800Y-32200D01*
X58325Y-32500D02*
X58325Y-31200D01*
X57400Y-30800D02*
X57925Y-30800D01*
X57925Y-30800D02*
X58325Y-31200D01*
X53900Y-32075D02*
X54825Y-32075D01*
X57098Y-30498D02*
X56752Y-30498D01*
X57400Y-30800D02*
X57098Y-30498D01*
X54825Y-32075D02*
X54900Y-32000D01*
X52075Y-34200D02*
X52500Y-34200D01*
X52425Y-32825D02*
X52333Y-32825D01*
X52700Y-33100D02*
X52425Y-32825D01*
X52700Y-34000D02*
X52700Y-33100D01*
X52500Y-34200D02*
X52700Y-34000D01*
G54D29*
X48504Y-31244D02*
X48504Y-31895D01*
X48504Y-31895D02*
X48500Y-31900D01*
G54D30*
X52333Y-32825D02*
X52575Y-32825D01*
X53725Y-32075D02*
X53900Y-32075D01*
X53300Y-32500D02*
X53725Y-32075D01*
X52900Y-32500D02*
X53300Y-32500D01*
X52575Y-32825D02*
X52900Y-32500D01*
X52333Y-32825D02*
X52333Y-32742D01*
X52333Y-32742D02*
X53000Y-32075D01*
X53003Y-32844D02*
X52352Y-32844D01*
X52352Y-32844D02*
X52333Y-32825D01*
G54D29*
X49744Y-30792D02*
X50382Y-30792D01*
X50382Y-30792D02*
X50500Y-30675D01*
M02*
