G04 (created by PCBNEW (2013-05-18 BZR 4017)-stable) date Thu 17 Jul 2014 20:47:08 CST*
%MOIN*%
G04 Gerber Fmt 3.4, Leading zero omitted, Abs format*
%FSLAX34Y34*%
G01*
G70*
G90*
G04 APERTURE LIST*
%ADD10C,0.00590551*%
%ADD11C,0.005*%
%ADD12C,0.0024*%
G04 APERTURE END LIST*
G54D10*
G54D11*
X48150Y-32250D02*
X48150Y-31750D01*
X47650Y-32250D02*
X47650Y-31760D01*
X47500Y-32250D02*
X48300Y-32250D01*
X48300Y-32250D02*
X48300Y-31750D01*
X48300Y-31750D02*
X47500Y-31750D01*
X47500Y-31750D02*
X47500Y-32250D01*
X49350Y-32550D02*
X49350Y-33050D01*
X49850Y-32550D02*
X49850Y-33040D01*
X50000Y-32550D02*
X49200Y-32550D01*
X49200Y-32550D02*
X49200Y-33050D01*
X49200Y-33050D02*
X50000Y-33050D01*
X50000Y-33050D02*
X50000Y-32550D01*
G54D10*
X56000Y-34219D02*
X61000Y-34219D01*
X61000Y-34219D02*
X61000Y-29180D01*
X61000Y-29180D02*
X51000Y-29180D01*
X51000Y-29180D02*
X51000Y-34219D01*
X51000Y-34219D02*
X56000Y-34219D01*
G54D11*
X49278Y-31535D02*
X49135Y-31535D01*
X49307Y-31621D02*
X49207Y-31321D01*
X49107Y-31621D01*
X49007Y-31621D02*
X49007Y-31321D01*
X48935Y-31321D01*
X48892Y-31335D01*
X48864Y-31364D01*
X48850Y-31392D01*
X48835Y-31450D01*
X48835Y-31492D01*
X48850Y-31550D01*
X48864Y-31578D01*
X48892Y-31607D01*
X48935Y-31621D01*
X49007Y-31621D01*
X48650Y-31321D02*
X48621Y-31321D01*
X48592Y-31335D01*
X48578Y-31350D01*
X48564Y-31378D01*
X48550Y-31435D01*
X48550Y-31507D01*
X48564Y-31564D01*
X48578Y-31592D01*
X48592Y-31607D01*
X48621Y-31621D01*
X48650Y-31621D01*
X48678Y-31607D01*
X48692Y-31592D01*
X48707Y-31564D01*
X48721Y-31507D01*
X48721Y-31435D01*
X48707Y-31378D01*
X48692Y-31350D01*
X48678Y-31335D01*
X48650Y-31321D01*
X48492Y-31650D02*
X48264Y-31650D01*
X48207Y-31607D02*
X48164Y-31621D01*
X48092Y-31621D01*
X48064Y-31607D01*
X48050Y-31592D01*
X48035Y-31564D01*
X48035Y-31535D01*
X48050Y-31507D01*
X48064Y-31492D01*
X48092Y-31478D01*
X48150Y-31464D01*
X48178Y-31450D01*
X48192Y-31435D01*
X48207Y-31407D01*
X48207Y-31378D01*
X48192Y-31350D01*
X48178Y-31335D01*
X48150Y-31321D01*
X48078Y-31321D01*
X48035Y-31335D01*
X47907Y-31464D02*
X47807Y-31464D01*
X47764Y-31621D02*
X47907Y-31621D01*
X47907Y-31321D01*
X47764Y-31321D01*
X47492Y-31621D02*
X47635Y-31621D01*
X47635Y-31321D01*
X49964Y-30050D02*
X49964Y-29950D01*
X50121Y-29950D02*
X49821Y-29950D01*
X49821Y-30092D01*
X50107Y-30192D02*
X50121Y-30235D01*
X50121Y-30307D01*
X50107Y-30335D01*
X50092Y-30350D01*
X50064Y-30364D01*
X50035Y-30364D01*
X50007Y-30350D01*
X49992Y-30335D01*
X49978Y-30307D01*
X49964Y-30250D01*
X49950Y-30221D01*
X49935Y-30207D01*
X49907Y-30192D01*
X49878Y-30192D01*
X49850Y-30207D01*
X49835Y-30221D01*
X49821Y-30250D01*
X49821Y-30321D01*
X49835Y-30364D01*
X49978Y-30550D02*
X50121Y-30550D01*
X49821Y-30450D02*
X49978Y-30550D01*
X49821Y-30650D01*
X50121Y-30750D02*
X49821Y-30750D01*
X50121Y-30921D01*
X49821Y-30921D01*
X50092Y-31235D02*
X50107Y-31221D01*
X50121Y-31178D01*
X50121Y-31150D01*
X50107Y-31107D01*
X50078Y-31078D01*
X50050Y-31064D01*
X49992Y-31050D01*
X49950Y-31050D01*
X49892Y-31064D01*
X49864Y-31078D01*
X49835Y-31107D01*
X49821Y-31150D01*
X49821Y-31178D01*
X49835Y-31221D01*
X49850Y-31235D01*
X50150Y-31292D02*
X50150Y-31521D01*
X50107Y-31578D02*
X50121Y-31621D01*
X50121Y-31692D01*
X50107Y-31721D01*
X50092Y-31735D01*
X50064Y-31750D01*
X50035Y-31750D01*
X50007Y-31735D01*
X49992Y-31721D01*
X49978Y-31692D01*
X49964Y-31635D01*
X49950Y-31607D01*
X49935Y-31592D01*
X49907Y-31578D01*
X49878Y-31578D01*
X49850Y-31592D01*
X49835Y-31607D01*
X49821Y-31635D01*
X49821Y-31707D01*
X49835Y-31750D01*
X49964Y-31878D02*
X49964Y-31978D01*
X50121Y-32021D02*
X50121Y-31878D01*
X49821Y-31878D01*
X49821Y-32021D01*
X50121Y-32292D02*
X50121Y-32150D01*
X49821Y-32150D01*
X47392Y-29278D02*
X47407Y-29264D01*
X47421Y-29221D01*
X47421Y-29192D01*
X47407Y-29150D01*
X47378Y-29121D01*
X47350Y-29107D01*
X47292Y-29092D01*
X47250Y-29092D01*
X47192Y-29107D01*
X47164Y-29121D01*
X47135Y-29150D01*
X47121Y-29192D01*
X47121Y-29221D01*
X47135Y-29264D01*
X47150Y-29278D01*
X47421Y-29550D02*
X47421Y-29407D01*
X47121Y-29407D01*
X47421Y-29650D02*
X47121Y-29650D01*
X47421Y-29821D02*
X47250Y-29692D01*
X47121Y-29821D02*
X47292Y-29650D01*
X47421Y-29950D02*
X47121Y-29950D01*
X47421Y-30092D02*
X47121Y-30092D01*
X47421Y-30264D01*
X47121Y-30264D01*
X47450Y-30335D02*
X47450Y-30564D01*
X47407Y-30621D02*
X47421Y-30664D01*
X47421Y-30735D01*
X47407Y-30764D01*
X47392Y-30778D01*
X47364Y-30792D01*
X47335Y-30792D01*
X47307Y-30778D01*
X47292Y-30764D01*
X47278Y-30735D01*
X47264Y-30678D01*
X47250Y-30650D01*
X47235Y-30635D01*
X47207Y-30621D01*
X47178Y-30621D01*
X47150Y-30635D01*
X47135Y-30650D01*
X47121Y-30678D01*
X47121Y-30750D01*
X47135Y-30792D01*
X47264Y-30921D02*
X47264Y-31021D01*
X47421Y-31064D02*
X47421Y-30921D01*
X47121Y-30921D01*
X47121Y-31064D01*
X47421Y-31335D02*
X47421Y-31192D01*
X47121Y-31192D01*
G54D12*
X47119Y-31836D02*
X47125Y-31842D01*
X47142Y-31847D01*
X47153Y-31847D01*
X47170Y-31842D01*
X47181Y-31830D01*
X47187Y-31819D01*
X47192Y-31797D01*
X47192Y-31780D01*
X47187Y-31757D01*
X47181Y-31746D01*
X47170Y-31735D01*
X47153Y-31729D01*
X47142Y-31729D01*
X47125Y-31735D01*
X47119Y-31741D01*
X47080Y-31729D02*
X47007Y-31729D01*
X47046Y-31774D01*
X47029Y-31774D01*
X47018Y-31780D01*
X47012Y-31785D01*
X47007Y-31797D01*
X47007Y-31825D01*
X47012Y-31836D01*
X47018Y-31842D01*
X47029Y-31847D01*
X47063Y-31847D01*
X47074Y-31842D01*
X47080Y-31836D01*
X47175Y-32147D02*
X47243Y-32147D01*
X47209Y-32147D02*
X47209Y-32029D01*
X47220Y-32046D01*
X47232Y-32057D01*
X47243Y-32063D01*
X47102Y-32029D02*
X47091Y-32029D01*
X47080Y-32035D01*
X47074Y-32041D01*
X47069Y-32052D01*
X47063Y-32074D01*
X47063Y-32102D01*
X47069Y-32125D01*
X47074Y-32136D01*
X47080Y-32142D01*
X47091Y-32147D01*
X47102Y-32147D01*
X47114Y-32142D01*
X47119Y-32136D01*
X47125Y-32125D01*
X47130Y-32102D01*
X47130Y-32074D01*
X47125Y-32052D01*
X47119Y-32041D01*
X47114Y-32035D01*
X47102Y-32029D01*
X47012Y-32069D02*
X47012Y-32147D01*
X47012Y-32080D02*
X47007Y-32074D01*
X46996Y-32069D01*
X46979Y-32069D01*
X46967Y-32074D01*
X46962Y-32085D01*
X46962Y-32147D01*
X50019Y-33236D02*
X50025Y-33242D01*
X50042Y-33247D01*
X50053Y-33247D01*
X50070Y-33242D01*
X50081Y-33230D01*
X50087Y-33219D01*
X50092Y-33197D01*
X50092Y-33180D01*
X50087Y-33157D01*
X50081Y-33146D01*
X50070Y-33135D01*
X50053Y-33129D01*
X50042Y-33129D01*
X50025Y-33135D01*
X50019Y-33141D01*
X49918Y-33169D02*
X49918Y-33247D01*
X49946Y-33124D02*
X49974Y-33208D01*
X49901Y-33208D01*
X49743Y-33129D02*
X49732Y-33129D01*
X49720Y-33135D01*
X49715Y-33141D01*
X49709Y-33152D01*
X49703Y-33174D01*
X49703Y-33202D01*
X49709Y-33225D01*
X49715Y-33236D01*
X49720Y-33242D01*
X49732Y-33247D01*
X49743Y-33247D01*
X49754Y-33242D01*
X49760Y-33236D01*
X49765Y-33225D01*
X49771Y-33202D01*
X49771Y-33174D01*
X49765Y-33152D01*
X49760Y-33141D01*
X49754Y-33135D01*
X49743Y-33129D01*
X49653Y-33236D02*
X49647Y-33242D01*
X49653Y-33247D01*
X49658Y-33242D01*
X49653Y-33236D01*
X49653Y-33247D01*
X49535Y-33247D02*
X49602Y-33247D01*
X49569Y-33247D02*
X49569Y-33129D01*
X49580Y-33146D01*
X49591Y-33157D01*
X49602Y-33163D01*
X49434Y-33169D02*
X49434Y-33247D01*
X49484Y-33169D02*
X49484Y-33230D01*
X49479Y-33242D01*
X49467Y-33247D01*
X49451Y-33247D01*
X49439Y-33242D01*
X49434Y-33236D01*
G54D10*
X57891Y-31400D02*
X58210Y-31400D01*
X58247Y-31418D01*
X58266Y-31437D01*
X58285Y-31475D01*
X58285Y-31550D01*
X58266Y-31587D01*
X58247Y-31606D01*
X58210Y-31625D01*
X57891Y-31625D01*
X58285Y-32018D02*
X58285Y-31793D01*
X58285Y-31906D02*
X57891Y-31906D01*
X57947Y-31868D01*
X57985Y-31831D01*
X58004Y-31793D01*
X53285Y-31015D02*
X52891Y-31015D01*
X53079Y-31015D02*
X53079Y-31240D01*
X53285Y-31240D02*
X52891Y-31240D01*
X53247Y-31653D02*
X53266Y-31634D01*
X53285Y-31578D01*
X53285Y-31540D01*
X53266Y-31484D01*
X53229Y-31446D01*
X53191Y-31428D01*
X53116Y-31409D01*
X53060Y-31409D01*
X52985Y-31428D01*
X52947Y-31446D01*
X52910Y-31484D01*
X52891Y-31540D01*
X52891Y-31578D01*
X52910Y-31634D01*
X52929Y-31653D01*
X52891Y-31896D02*
X52891Y-31934D01*
X52910Y-31971D01*
X52929Y-31990D01*
X52966Y-32009D01*
X53041Y-32028D01*
X53135Y-32028D01*
X53210Y-32009D01*
X53247Y-31990D01*
X53266Y-31971D01*
X53285Y-31934D01*
X53285Y-31896D01*
X53266Y-31859D01*
X53247Y-31840D01*
X53210Y-31821D01*
X53135Y-31803D01*
X53041Y-31803D01*
X52966Y-31821D01*
X52929Y-31840D01*
X52910Y-31859D01*
X52891Y-31896D01*
X52891Y-32384D02*
X52891Y-32196D01*
X53079Y-32178D01*
X53060Y-32196D01*
X53041Y-32234D01*
X53041Y-32328D01*
X53060Y-32365D01*
X53079Y-32384D01*
X53116Y-32403D01*
X53210Y-32403D01*
X53247Y-32384D01*
X53266Y-32365D01*
X53285Y-32328D01*
X53285Y-32234D01*
X53266Y-32196D01*
X53247Y-32178D01*
M02*
